<svg width="293" height="117" viewBox="0 0 293 117" fill="none" xmlns="http://www.w3.org/2000/svg">
<path d="M115.495 103.665C114.023 103.665 112.895 103.274 112.111 102.493C111.326 101.662 110.933 100.489 110.933 98.9737V55.4277C110.933 53.9126 111.326 52.7641 112.111 51.9822C112.895 51.2002 114.023 50.8092 115.495 50.8092C116.966 50.8092 118.094 51.2002 118.879 51.9822C119.712 52.7641 120.129 53.9126 120.129 55.4277V74.4149H119.099C120.178 71.8246 121.846 69.8697 124.102 68.5501C126.407 67.1817 129.006 66.4975 131.9 66.4975C134.793 66.4975 137.172 67.0351 139.035 68.1103C140.899 69.1855 142.297 70.8227 143.229 73.022C144.16 75.1725 144.626 77.9093 144.626 81.2327V98.9737C144.626 100.489 144.234 101.662 143.449 102.493C142.665 103.274 141.537 103.665 140.065 103.665C138.594 103.665 137.442 103.274 136.608 102.493C135.823 101.662 135.431 100.489 135.431 98.9737V81.6726C135.431 78.8868 134.891 76.8586 133.812 75.5879C132.782 74.3172 131.164 73.6818 128.957 73.6818C126.26 73.6818 124.102 74.5371 122.483 76.2477C120.914 77.9093 120.129 80.1331 120.129 82.9188V98.9737C120.129 102.102 118.584 103.665 115.495 103.665Z" fill="#04D9D9"/>
<path d="M170.371 103.812C166.644 103.812 163.407 103.055 160.661 101.54C157.914 100.024 155.781 97.874 154.261 95.0883C152.74 92.2536 151.98 88.9302 151.98 85.1181C151.98 82.2346 152.397 79.6688 153.231 77.4206C154.113 75.1236 155.364 73.1687 156.982 71.5558C158.601 69.8942 160.538 68.6479 162.794 67.8171C165.05 66.9373 167.576 66.4975 170.371 66.4975C174.099 66.4975 177.336 67.255 180.082 68.7701C182.828 70.2851 184.962 72.4356 186.482 75.2213C188.003 78.0071 188.763 81.306 188.763 85.1181C188.763 88.0017 188.321 90.5919 187.439 92.889C186.605 95.186 185.379 97.1654 183.76 98.827C182.142 100.44 180.205 101.686 177.949 102.566C175.693 103.397 173.167 103.812 170.371 103.812ZM170.371 96.8477C172.186 96.8477 173.78 96.4078 175.153 95.5281C176.526 94.6484 177.581 93.3533 178.316 91.6427C179.101 89.8833 179.493 87.7084 179.493 85.1181C179.493 81.2083 178.66 78.3003 176.992 76.3943C175.325 74.4394 173.118 73.4619 170.371 73.4619C168.557 73.4619 166.963 73.9018 165.59 74.7815C164.216 75.6123 163.137 76.9075 162.353 78.6669C161.617 80.3774 161.249 82.5279 161.249 85.1181C161.249 88.9791 162.083 91.9115 163.75 93.9153C165.418 95.8702 167.625 96.8477 170.371 96.8477Z" fill="#04D9D9"/>
<path d="M201.061 103.665C199.589 103.665 198.461 103.274 197.677 102.493C196.892 101.662 196.5 100.489 196.5 98.9737V71.2626C196.5 69.7475 196.892 68.599 197.677 67.8171C198.461 67.0351 199.565 66.6441 200.987 66.6441C202.409 66.6441 203.513 67.0351 204.298 67.8171C205.082 68.599 205.475 69.7475 205.475 71.2626V76.6142L204.665 74.4149C205.646 71.9713 207.167 70.0408 209.227 68.6235C211.286 67.2061 213.739 66.4975 216.583 66.4975C219.477 66.4975 221.855 67.1817 223.719 68.5501C225.583 69.9186 226.882 72.0201 227.618 74.8548H226.588C227.569 72.2645 229.187 70.2363 231.443 68.7701C233.699 67.255 236.299 66.4975 239.241 66.4975C241.988 66.4975 244.244 67.0351 246.009 68.1103C247.824 69.1855 249.172 70.8227 250.055 73.022C250.938 75.1725 251.379 77.9093 251.379 81.2327V98.9737C251.379 100.489 250.963 101.662 250.129 102.493C249.344 103.274 248.216 103.665 246.745 103.665C245.274 103.665 244.146 103.274 243.361 102.493C242.576 101.662 242.184 100.489 242.184 98.9737V81.5993C242.184 78.8624 241.718 76.8586 240.786 75.5879C239.903 74.3172 238.383 73.6818 236.225 73.6818C233.822 73.6818 231.934 74.5371 230.56 76.2477C229.187 77.9093 228.501 80.2308 228.501 83.2121V98.9737C228.501 100.489 228.108 101.662 227.324 102.493C226.539 103.274 225.411 103.665 223.94 103.665C222.468 103.665 221.316 103.274 220.482 102.493C219.697 101.662 219.305 100.489 219.305 98.9737V81.5993C219.305 78.8624 218.839 76.8586 217.907 75.5879C217.024 74.3172 215.529 73.6818 213.42 73.6818C211.017 73.6818 209.128 74.5371 207.755 76.2477C206.382 77.9093 205.695 80.2308 205.695 83.2121V98.9737C205.695 102.102 204.15 103.665 201.061 103.665Z" fill="#04D9D9"/>
<path d="M269.629 116.861C268.55 116.861 267.667 116.568 266.98 115.982C266.294 115.444 265.877 114.711 265.73 113.782C265.632 112.854 265.803 111.876 266.245 110.85L271.247 99.7801V103.592L257.858 72.7288C257.417 71.6536 257.27 70.6517 257.417 69.7231C257.564 68.7945 258.005 68.0614 258.741 67.5238C259.526 66.9373 260.58 66.6441 261.904 66.6441C263.032 66.6441 263.94 66.9129 264.626 67.4505C265.313 67.9392 265.926 68.8923 266.465 70.3096L276.397 95.0149H274.19L284.342 70.2363C284.881 68.8678 285.519 67.9392 286.255 67.4505C286.99 66.9129 287.971 66.6441 289.197 66.6441C290.276 66.6441 291.134 66.9373 291.772 67.5238C292.41 68.0614 292.802 68.7945 292.949 69.7231C293.096 70.6028 292.924 71.5803 292.434 72.6555L274.558 113.342C273.92 114.711 273.234 115.639 272.498 116.128C271.762 116.617 270.806 116.861 269.629 116.861Z" fill="#04D9D9"/>
<g clip-path="url(#clip0_223_64)">
<path d="M21.3025 102.81C21.0189 102.732 20.7353 102.657 20.4544 102.574C20.0932 102.466 19.7373 102.354 19.3788 102.241C19.1193 102.161 18.8571 102.088 18.6056 101.989C18.1588 101.812 17.7146 101.627 17.2785 101.423C16.8504 101.225 16.4197 101.024 16.0157 100.78C15.0097 100.171 14.0384 99.5164 13.2224 98.6528C12.7301 98.1325 12.1763 97.6686 11.7054 97.1295C11.3174 96.6843 11.0071 96.1748 10.678 95.6813C10.4104 95.2817 10.1429 94.8821 9.91547 94.4584C9.73621 94.1231 9.61848 93.7557 9.46598 93.4071C9.27602 92.9699 9.07 92.5381 8.88539 92.0983C8.80512 91.9079 8.75161 91.7041 8.6981 91.5029C8.60981 91.1623 8.51617 90.8217 8.45998 90.4758C8.37169 89.9367 8.39577 89.3655 8.21918 88.8613C8.02387 88.3008 8.06935 87.7483 8.06935 87.1932C8.05865 74.9853 8.06133 62.7774 8.05865 50.5695C8.05865 50.4086 8.0426 50.2476 8.03457 50.084C7.98909 50.0599 7.94628 50.0331 7.9008 50.009C7.54763 50.3951 7.22121 50.8135 6.83326 51.1622C6.5122 51.4491 6.1296 51.6744 5.75235 51.8889C5.53563 52.0123 5.27611 52.0606 5.03263 52.141C4.3691 52.3663 3.70825 52.3717 3.04472 52.133C2.74238 52.0257 2.39189 52.0096 2.12969 51.846C1.74441 51.6074 1.37519 51.3097 1.07821 50.9664C0.759819 50.5963 0.449458 50.1779 0.286251 49.7247C0.0374276 49.0408 -0.0963487 48.2952 0.0668584 47.5684C0.315682 46.4716 0.915 45.5839 1.78722 44.8598C2.3143 44.4199 2.75844 43.8835 3.24806 43.3954C3.834 42.8108 4.43064 42.2369 5.0139 41.6495C5.7684 40.8879 6.50952 40.1101 7.2667 39.3512C7.98641 38.6298 8.72486 37.9325 9.44725 37.2137C10.0706 36.5942 10.6726 35.9532 11.2934 35.3311C12.1388 34.4836 12.995 33.6441 13.8431 32.7994C14.6003 32.0458 15.3495 31.2841 16.104 30.5278C16.9521 29.6803 17.8029 28.8355 18.6511 27.9881C19.526 27.1165 20.4008 26.2422 21.2757 25.3679C22.4985 24.1449 23.7185 22.9166 24.9385 21.6937C26.1265 20.5056 27.3091 19.3149 28.5023 18.1322C29.6796 16.9656 30.8729 15.8177 32.0447 14.6484C33.0159 13.6776 33.9604 12.6799 34.929 11.7064C35.6941 10.9367 36.4808 10.1911 37.2486 9.42681C38.0887 8.58739 38.9075 7.72919 39.7476 6.88976C40.3817 6.25684 41.0372 5.64537 41.6739 5.01513C42.102 4.59139 42.5087 4.14352 42.9421 3.72515C43.504 3.18341 44.0231 2.59608 44.7133 2.19916C45.2324 1.90147 45.7113 1.53137 46.2357 1.24709C46.6049 1.04595 47.0223 0.935996 47.4156 0.777765C47.6885 0.667808 47.9561 0.547124 48.229 0.434485C48.2477 0.426439 48.2691 0.423757 48.2905 0.421076C48.7534 0.348665 49.2243 0.311119 49.6738 0.195798C50.6129 -0.0428888 51.568 -0.0107063 52.5178 0.0295218C53.0503 0.0509768 53.5881 0.123387 54.1044 0.244072C54.7492 0.396939 55.3914 0.587352 56.0094 0.831403C56.5071 1.02718 56.9672 1.32487 57.4435 1.57428C57.7431 1.73251 58.0615 1.85856 58.3398 2.04629C58.709 2.29839 59.0702 2.57194 59.394 2.87767C59.905 3.36309 60.3812 3.88338 60.8762 4.38757C61.4755 4.99904 62.0722 5.61051 62.6741 6.21661C63.1424 6.68862 63.6213 7.15258 64.0922 7.62459C64.6888 8.22533 65.2774 8.83412 65.8767 9.43486C66.3557 9.91492 66.8506 10.3842 67.3296 10.867C67.9155 11.457 68.4881 12.0577 69.0767 12.6451C69.7054 13.2726 70.3556 13.8814 70.9816 14.5143C71.5542 15.0909 72.1027 15.6944 72.6726 16.2736C73.1595 16.7671 73.6679 17.2391 74.1575 17.7299C74.7354 18.3092 75.2973 18.9019 75.8725 19.4838C76.4852 20.1034 77.1086 20.7121 77.7186 21.3343C78.1895 21.8144 78.6443 22.3105 79.1179 22.7879C79.9607 23.6381 80.8222 24.4721 81.6597 25.3277C82.366 26.0464 83.0456 26.7946 83.7546 27.5134C84.2496 28.0149 84.7847 28.4762 85.2796 28.975C85.8522 29.5516 86.39 30.1631 86.9626 30.7397C87.4575 31.2385 87.9926 31.6998 88.4876 32.1986C89.1217 32.8396 89.7237 33.5101 90.3578 34.151C90.7886 34.5882 91.2594 34.9878 91.6956 35.4196C92.1905 35.913 92.6587 36.4306 93.151 36.9241C93.7263 37.5007 94.3202 38.0612 94.8955 38.6378C95.3878 39.1339 95.8614 39.6489 96.3536 40.145C96.9289 40.7243 97.5229 41.2848 98.0981 41.8641C98.5877 42.3522 99.0613 42.8564 99.5509 43.3445C100.137 43.9318 100.742 44.4977 101.317 45.0931C101.825 45.6187 102.283 46.198 102.545 46.8846C102.791 47.5336 102.879 48.2389 102.745 48.9228C102.553 49.8883 102.101 50.7438 101.335 51.3821C101.065 51.6073 100.707 51.7254 100.396 51.9104C99.8211 52.2537 99.1951 52.31 98.5476 52.2912C98.0472 52.2778 97.5978 52.1089 97.1322 51.9319C96.3858 51.6449 95.8774 51.0924 95.3503 50.548C95.2166 50.4086 95.0881 50.2637 94.9436 50.1377C94.9196 50.1162 94.7751 50.1672 94.7644 50.2074C94.7376 50.3066 94.751 50.4193 94.751 50.5266C94.751 55.8796 94.7564 61.2326 94.743 66.5856C94.7403 67.1086 94.6627 67.645 94.5289 68.1492C94.4433 68.4737 94.2025 68.766 94.0019 69.0503C93.8092 69.3211 93.6086 69.5974 93.3571 69.8092C93.0734 70.0479 92.7363 70.2276 92.4126 70.4127C91.8079 70.7586 91.1444 70.8659 90.4621 70.8042C89.7424 70.7399 89.0521 70.5682 88.4903 70.064C88.2281 69.8307 87.915 69.6483 87.6903 69.3855C87.4602 69.1173 87.305 68.7794 87.1231 68.471C86.6468 67.653 86.7325 66.7492 86.7325 65.8588C86.7325 57.9956 86.7325 50.1323 86.7432 42.2691C86.7432 41.9526 86.6468 41.7327 86.4301 41.5128C85.5071 40.5822 84.6054 39.6328 83.685 38.7022C82.9386 37.9459 82.168 37.211 81.4215 36.4574C80.6992 35.728 79.9982 34.977 79.2731 34.2529C78.639 33.62 77.9755 33.022 77.344 32.389C76.7742 31.8178 76.2417 31.209 75.6745 30.6351C75.1822 30.1363 74.6551 29.6696 74.1602 29.1735C73.7187 28.731 73.3093 28.2563 72.8706 27.8138C72.3783 27.3176 71.8619 26.8483 71.3696 26.3521C70.7944 25.7728 70.2459 25.1721 69.668 24.5955C69.09 24.0216 68.4827 23.4772 67.9075 22.9006C67.4125 22.4044 66.955 21.868 66.46 21.3719C65.8286 20.739 65.1704 20.1329 64.5363 19.5053C64.1029 19.0762 63.6989 18.6149 63.2681 18.1831C62.6875 17.6039 62.0882 17.0487 61.5076 16.4694C61.0314 15.9947 60.5792 15.4986 60.1083 15.0185C59.4715 14.3668 58.8214 13.7232 58.1873 13.0688C57.2428 12.098 56.3224 11.1003 55.3619 10.1482C54.7813 9.57164 54.1633 9.0299 53.5158 8.53107C53.2804 8.3487 52.8871 8.38893 52.6168 8.23338C52.1727 7.9786 51.7045 8.03492 51.255 8.08051C50.8269 8.12342 50.4149 8.30579 49.9975 8.43452C49.1306 8.70271 48.6169 9.41072 48.0149 10.0168C47.4424 10.5934 46.835 11.1352 46.2598 11.7091C45.7675 12.1972 45.3046 12.7175 44.8123 13.2083C44.2344 13.7875 43.6324 14.3427 43.0518 14.9193C42.5622 15.4074 42.094 15.9196 41.6044 16.4104C41.0265 16.9897 40.4352 17.5502 39.8546 18.1268C39.365 18.6149 38.886 19.1191 38.3964 19.6072C37.8132 20.1892 37.2219 20.7631 36.6359 21.3424C36.2159 21.7608 35.7958 22.1818 35.3838 22.6055C35.0253 22.973 34.6828 23.3565 34.3216 23.7212C33.9444 24.102 33.5564 24.4721 33.1738 24.8476C32.5825 25.4242 31.9885 25.9954 31.4026 26.5747C30.9237 27.0521 30.4581 27.5429 29.9792 28.0203C29.3826 28.6183 28.7699 29.2003 28.1786 29.801C27.4214 30.5707 26.6857 31.3619 25.9285 32.1289C25.4924 32.5687 25.0188 32.9737 24.5827 33.4135C23.9513 34.0518 23.3466 34.7196 22.7098 35.3552C21.9981 36.0659 21.257 36.7471 20.54 37.4524C19.732 38.2462 18.9373 39.0508 18.1374 39.8527C17.6049 40.3864 17.0698 40.9174 16.5401 41.4565C16.2458 41.7568 16.0906 42.076 16.0906 42.548C16.1093 57.1588 16.1066 71.7697 16.1066 86.3779C16.1066 86.6031 16.0879 86.8311 16.112 87.0537C16.1762 87.6813 16.1815 88.3276 16.3501 88.9283C16.5508 89.6444 16.8692 90.3256 17.2411 90.988C17.6959 91.8006 18.3166 92.4523 18.9668 93.0826C19.2584 93.3642 19.6597 93.5358 20.0129 93.753C20.3152 93.9381 20.6149 94.1258 20.9253 94.2948C21.0778 94.3779 21.249 94.4369 21.4149 94.4825C21.7787 94.5844 22.1426 94.6997 22.5145 94.7587C25.1151 95.1691 27.7345 94.8741 30.3458 94.9384C32.2829 94.9867 34.2199 94.9465 36.157 94.9465C36.2721 94.9465 36.3898 94.9465 36.5423 94.9465C36.5503 94.7802 36.5664 94.6354 36.5664 94.4905C36.5664 87.1422 36.5664 79.7939 36.569 72.4455C36.569 71.877 36.545 71.3057 36.6038 70.7425C36.6707 70.115 36.8179 69.4955 36.9356 68.876C37.0105 68.479 37.0827 68.0794 37.1871 67.6906C37.27 67.3875 37.3985 67.0979 37.5108 66.8055C37.5804 66.6259 37.6553 66.4489 37.7356 66.2745C38.0165 65.6631 38.2493 65.0221 38.5971 64.4509C39.1081 63.6195 39.6111 62.772 40.3442 62.0962C40.89 61.592 41.4091 61.0556 41.9308 60.5246C42.4044 60.0392 42.9502 59.6583 43.5415 59.3338C44.007 59.0764 44.4511 58.7787 44.9247 58.5346C45.4518 58.2611 45.9869 57.9902 46.5434 57.7944C47.1106 57.5933 47.7073 57.4646 48.2985 57.3305C48.8604 57.2017 49.4303 57.0998 50.0002 56.9979C50.1875 56.9631 50.3828 56.947 50.5727 56.9443C51.3005 56.9389 52.0282 56.9175 52.756 56.9523C53.3152 56.9791 53.877 57.0569 54.4282 57.1588C54.9633 57.2581 55.4957 57.3948 56.0121 57.5638C56.4669 57.714 56.8977 57.9393 57.3445 58.1163C57.5826 58.2101 57.8448 58.2557 58.0776 58.3576C58.3532 58.481 58.6154 58.6339 58.8722 58.7921C59.2441 59.0201 59.616 59.2507 59.9719 59.5055C60.4722 59.8622 60.9859 60.2108 61.4407 60.6211C62.0588 61.179 62.6581 61.769 63.2119 62.3939C63.6052 62.8364 63.9316 63.3432 64.2527 63.8447C64.5978 64.3865 64.935 64.9363 65.2079 65.5182C65.4754 66.0895 65.6574 66.6983 65.8767 67.2936C65.9971 67.6155 66.1149 67.9373 66.2326 68.2618C66.2353 68.2725 66.2379 68.2832 66.2406 68.294C66.3155 68.7472 66.4065 69.1978 66.4654 69.6537C66.8667 72.6628 66.6179 75.6852 66.6446 78.7023C66.6901 83.9695 66.658 89.2368 66.658 94.504C66.658 94.6407 66.658 94.7775 66.658 94.9304C66.7597 94.9411 66.8319 94.9545 66.9041 94.9545C71.0352 94.9518 75.1662 94.9626 79.2972 94.9331C79.851 94.9277 80.4022 94.7185 80.9533 94.5925C81.1754 94.5415 81.4028 94.4771 81.6088 94.3806C82.0021 94.1955 82.3847 93.9917 82.7647 93.7772C83.0937 93.5894 83.4309 93.4071 83.7252 93.1711C84.0783 92.8868 84.4048 92.5623 84.7124 92.2297C84.988 91.932 85.2502 91.6156 85.4723 91.275C85.6596 90.9907 85.7907 90.6689 85.9271 90.3551C86.1224 89.9072 86.2963 89.4513 86.4783 88.9981C86.5024 88.9391 86.5265 88.8774 86.5318 88.8157C86.604 88.0433 86.6442 87.2683 86.7539 86.5012C86.8127 86.0909 86.992 85.702 87.1044 85.2998C87.2488 84.7768 87.5833 84.3745 87.9605 84.0205C88.4368 83.5726 88.9826 83.2481 89.6327 83.055C90.0528 82.9317 90.4568 82.8673 90.8795 82.8834C91.6661 82.9129 92.3537 83.2025 93.028 83.6182C93.7718 84.0768 94.1463 84.7741 94.5209 85.4929C94.6333 85.7101 94.7243 85.9729 94.7216 86.2143C94.7135 87.0537 94.6627 87.8958 94.6253 88.7352C94.6226 88.7862 94.6012 88.8372 94.5931 88.8908C94.5049 89.4889 94.4567 90.0949 94.3229 90.6796C94.1999 91.216 93.9858 91.7309 93.8146 92.2565C93.7236 92.5381 93.6514 92.8278 93.539 93.1013C93.4025 93.4392 93.2474 93.7691 93.0815 94.0909C92.9183 94.4128 92.7444 94.7292 92.549 95.0323C92.2467 95.4989 91.8935 95.9334 91.6153 96.4108C91.222 97.0866 90.628 97.5827 90.1438 98.1781C89.9698 98.39 89.7531 98.5697 89.5471 98.7547C89.2073 99.0578 88.8782 99.3742 88.5144 99.6424C88.0461 99.9857 87.5512 100.291 87.0615 100.603C86.6656 100.855 86.2723 101.115 85.8549 101.327C85.4883 101.514 85.0924 101.643 84.7071 101.796C84.5198 101.871 84.3325 101.943 84.1425 102.011C83.6315 102.19 83.1205 102.365 82.6068 102.539C82.5265 102.566 82.4382 102.56 82.3553 102.584C82.0824 102.66 81.8122 102.74 81.5419 102.82C74.7782 102.82 68.0145 102.82 61.2508 102.82C60.9404 102.619 60.6407 102.389 60.3143 102.22C59.715 101.914 59.3672 101.372 59.0863 100.822C58.7705 100.208 58.6207 99.5298 58.6207 98.8084C58.6341 89.9689 58.6287 81.1321 58.6314 72.2927C58.6314 71.4666 58.5565 70.6674 58.2729 69.8736C58.107 69.407 57.8957 68.9779 57.6843 68.538C57.3632 67.8702 56.8977 67.3044 56.3706 66.8297C55.8328 66.3469 55.2041 65.9339 54.5513 65.6282C53.9145 65.3305 53.2081 65.1401 52.5098 65.0221C51.5894 64.8639 50.6664 65.0221 49.754 65.2018C49.7219 65.2071 49.6925 65.2232 49.6657 65.2366C49.2671 65.419 48.8577 65.5799 48.4725 65.7864C48.0578 66.0063 47.643 66.237 47.2685 66.5159C46.9073 66.7868 46.5648 67.0952 46.2759 67.4411C45.9468 67.8354 45.6578 68.2698 45.4117 68.7204C45.2137 69.0851 45.0799 69.4955 44.9648 69.8978C44.8177 70.41 44.6946 70.933 44.6117 71.4586C44.5582 71.7938 44.5929 72.1425 44.5929 72.4858C44.5929 81.175 44.5929 89.8616 44.5929 98.5509C44.5929 98.862 44.617 99.1785 44.5689 99.4815C44.5127 99.8328 44.4217 100.19 44.2879 100.517C44.1702 100.801 43.9428 101.034 43.8144 101.316C43.6324 101.71 43.3194 101.96 42.9769 102.185C42.6532 102.399 42.3214 102.606 41.9923 102.818C35.0868 102.81 28.1947 102.81 21.3025 102.81Z" fill="#04D9D9"/>
<path d="M87.0771 37.0815C87.0771 33.7432 87.0634 30.4074 87.0882 27.0691C87.0937 26.3552 87.3248 25.6781 87.8312 25.1165C88.0733 24.8488 88.2715 24.5312 88.5577 24.316C88.9842 23.9932 89.452 23.736 89.9942 23.5759C90.4978 23.4263 90.9931 23.3554 91.5022 23.4C92.226 23.463 92.8809 23.7071 93.5056 24.0745C94.1 24.4236 94.477 24.9354 94.8458 25.4576C94.9971 25.6702 95.0467 25.9511 95.1347 26.2056C95.5448 27.3971 95.3164 28.6254 95.3219 29.8353C95.3494 35.5436 95.3384 41.2545 95.3274 46.9627C95.3246 47.8734 94.9338 48.6555 94.3504 49.3668C93.9046 49.9127 93.3102 50.2565 92.669 50.5084C92.0113 50.7656 91.2848 50.8995 90.5886 50.7394C89.9914 50.6003 89.408 50.4087 88.8631 50.0623C88.2962 49.7001 87.922 49.2251 87.5725 48.7159C87.4101 48.4797 87.3661 48.17 87.2615 47.8971C86.8763 46.8709 87.1019 45.8106 87.0854 44.7687C87.0496 42.2045 87.0744 39.643 87.0771 37.0815Z" fill="#04D9D9"/>
</g>
<defs>
<clipPath id="clip0_223_64">
<rect width="102.81" height="102.81" fill="white"/>
</clipPath>
</defs>
</svg>
